<?xml version="1.0" encoding="UTF-8" standalone="no"?>
<svg
   xmlns:dc="http://purl.org/dc/elements/1.1/"
   xmlns:cc="http://creativecommons.org/ns#"
   xmlns:rdf="http://www.w3.org/1999/02/22-rdf-syntax-ns#"
   xmlns:svg="http://www.w3.org/2000/svg"
   xmlns="http://www.w3.org/2000/svg"
   xmlns:sodipodi="http://sodipodi.sourceforge.net/DTD/sodipodi-0.dtd"
   xmlns:inkscape="http://www.inkscape.org/namespaces/inkscape"
   sodipodi:docname="planetengine.svg"
   inkscape:version="1.0 (4035a4fb49, 2020-05-01)"
   width="1366.0px"
   height="768.0px"
   viewBox="0 0 1366.0 768.0"
   version="1.1"
   id="SVGRoot">
  <defs
     id="defs3254" />
  <sodipodi:namedview
     inkscape:window-maximized="1"
     inkscape:window-y="-8"
     inkscape:window-x="-8"
     inkscape:window-height="1018"
     inkscape:window-width="1920"
     showgrid="false"
     inkscape:document-rotation="0"
     inkscape:current-layer="layer1"
     inkscape:document-units="px"
     inkscape:cy="477.30014"
     inkscape:cx="774.85486"
     inkscape:zoom="0.7"
     inkscape:pageshadow="2"
     inkscape:pageopacity="0.0"
     borderopacity="1.0"
     bordercolor="#666666"
     pagecolor="#ffffff"
     id="base" />
  <metadata
     id="metadata3257">
    <rdf:RDF>
      <cc:Work
         rdf:about="">
        <dc:format>image/svg+xml</dc:format>
        <dc:type
           rdf:resource="http://purl.org/dc/dcmitype/StillImage" />
        <dc:title></dc:title>
      </cc:Work>
    </rdf:RDF>
  </metadata>
  <g
     id="layer1"
     inkscape:groupmode="layer"
     inkscape:label="图层 1">
    <path
       inkscape:export-ydpi="49344"
       inkscape:export-xdpi="49344"
       d="m 385.75913,164.76133 a 178.28614,178.28614 0 0 0 -188.56228,0.18192 178.28614,178.28614 0 0 0 -56.79359,245.65465 178.28614,178.28614 0 0 0 21.69713,28.07891 l 51.97452,-66.68794 c 7.78387,-9.98802 22.09286,-11.76536 32.08084,-3.98148 9.988,7.78388 11.76118,22.08949 3.97733,32.07743 l -52.60484,67.50785 a 178.28614,178.28614 0 0 0 188.52963,-0.20136 178.28614,178.28614 0 0 0 56.79361,-245.65461 178.28614,178.28614 0 0 0 -21.68374,-28.06138 l -53.29781,66.43691 c -7.92388,9.87729 -22.25316,11.45348 -32.13043,3.52962 -9.87728,-7.92387 -11.45014,-22.2573 -3.52625,-32.13458 z"
       style="fill:#646464;fill-opacity:1;stroke-width:2.74287"
       id="path2025" />
    <path
       inkscape:export-ydpi="49344"
       inkscape:export-xdpi="49344"
       d="m 290.12756,141.11466 a 178.28614,178.28614 0 0 0 -93.18237,27.05898 178.28614,178.28614 0 0 0 -15.39644,10.78397 274.28636,61.714429 37.191992 0 1 149.33068,95.14841 274.28636,61.714429 37.191992 0 1 125.92528,111.761 178.28614,178.28614 0 0 0 -14.20183,-160.90216 178.28614,178.28614 0 0 0 -21.68575,-28.06079 l -53.29833,66.43944 c -7.92386,9.87733 -22.25488,11.44889 -32.1322,3.52498 -9.87729,-7.92382 -11.44888,-22.2549 -3.52503,-32.13218 l 53.54476,-66.7448 a 178.28614,178.28614 0 0 0 -95.37877,-26.87685 z m 166.67715,244.75236 a 178.28614,178.28614 0 0 1 -6.08574,13.50002 241.95976,47.779703 37.191992 0 1 33.98582,67.43588 241.95976,47.779703 37.191992 0 1 -74.30373,-14.67325 178.28614,178.28614 0 0 1 -13.55362,11.0036 274.28636,61.714429 37.191992 0 0 115.22171,25.94468 274.28636,61.714429 37.191992 0 0 -55.26444,-103.21093 z m -59.95727,77.26625 A 274.28636,61.714429 37.191992 0 1 256.26498,372.43662 274.28636,61.714429 37.191992 0 1 125.13251,255.00243 a 178.28614,178.28614 0 0 0 15.02147,158.82359 178.28614,178.28614 0 0 0 21.69649,28.07686 L 213.8256,375.217 c 7.78386,-9.98797 22.09067,-11.76422 32.07864,-3.98037 9.988,7.78387 11.76424,22.09067 3.98036,32.07867 l -52.60729,67.50547 a 178.28614,178.28614 0 0 0 188.52904,-0.19827 178.28614,178.28614 0 0 0 11.04109,-7.48931 z M 125.13251,255.00243 a 178.28614,178.28614 0 0 1 6.59468,-14.96791 241.95976,47.779703 37.191992 0 1 -32.523313,-65.75906 241.95976,47.779703 37.191992 0 1 15.878643,-4.80002 241.95976,47.779703 37.191992 0 1 56.00905,18.32683 178.28614,178.28614 0 0 1 10.45718,-8.84466 274.28636,61.714429 37.191992 0 0 -83.030583,-28.50008 274.28636,61.714429 37.191992 0 0 -23.44823,7.01254 274.28636,61.714429 37.191992 0 0 50.062573,97.53236 z m 45.95906,-67.20016 a 178.28614,178.28614 0 0 0 -39.36438,52.23225 241.95976,47.779703 37.191992 0 0 131.34139,118.56992 241.95976,47.779703 37.191992 0 0 147.33248,93.52523 178.28614,178.28614 0 0 0 40.31791,-52.76263 A 241.95976,47.779703 37.191992 0 0 320.84015,282.47393 241.95976,47.779703 37.191992 0 0 171.09157,187.80227 Z"
       style="fill:#646464;fill-opacity:1;stroke-width:2.74287"
       id="path2025-1" />
    <path
       inkscape:export-ydpi="49344"
       inkscape:export-xdpi="49344"
       id="path2177"
       d="m 482.74746,495.00696 c -7.68791,-1.21087 -20.4363,-4.54399 -29.73376,-7.77402 -24.04131,-8.35223 -60.11616,-25.52036 -53.62511,-25.52036 0.41333,0 3.04082,-2.00264 5.83886,-4.45032 l 5.08735,-4.45027 12.0387,5.31401 c 37.67796,16.6314 62.21114,18.26832 64.67954,4.31562 1.83295,-10.36105 -7.86535,-29.28652 -27.2921,-53.25827 l -8.15874,-10.06757 2.7046,-6.05679 2.70461,-6.05683 7.34995,8.21227 c 35.36408,39.51307 53.34746,71.14547 49.70202,87.4247 -1.04194,4.6529 -4.78331,9.08372 -9.30374,11.01834 -4.11912,1.76284 -15.09241,2.4362 -21.99218,1.34949 z"
       style="fill:#9d9d9d;fill-opacity:1;stroke-width:0.979592" />
    <path
       inkscape:export-ydpi="49344"
       inkscape:export-xdpi="49344"
       id="path2179"
       d="m 118.01389,246.02668 c -28.103133,-32.1853 -45.581683,-61.94075 -45.581683,-77.59819 0,-5.98796 3.55989,-12.28958 8.32655,-14.73948 4.84021,-2.4877 17.13277,-3.21378 26.694133,-1.57677 15.5419,2.66094 38.63928,10.74989 61.80728,21.64553 l 11.11342,5.22654 -4.66986,4.05119 -4.66981,4.05122 -9.48936,-4.17625 c -28.7279,-12.64312 -50.61168,-16.87484 -59.65142,-11.53493 -11.582343,6.84185 -2.645293,30.48586 23.3626,61.80857 l 5.86534,7.06393 -3.14596,6.79195 -3.14599,6.79192 z"
       style="fill:#9d9d9d;fill-opacity:1;stroke-width:0.979592" />
    <path
       inkscape:export-ydpi="49344"
       inkscape:export-xdpi="49344"
       id="path2181"
       d="M 380.02477,453.30847 C 316.02496,417.90829 244.35787,366.1159 181.65696,309.95201 164.3872,294.48278 126.31113,256.51792 126.30708,254.76382 c -0.001,-0.66828 1.1588,-3.95175 2.57858,-7.29662 l 2.58139,-6.08165 19.0323,19.50602 c 66.31716,67.9676 161.05429,139.50089 241.92405,182.66992 l 16.80688,8.97164 -5.67005,4.58973 c -3.11851,2.52436 -6.27344,4.58846 -7.01089,4.58695 -0.73748,-10e-4 -8.17354,-3.78212 -16.52457,-8.40134 z"
       style="fill:#9d9d9d;fill-opacity:1;stroke-width:0.979592" />
    <path
       inkscape:export-ydpi="49344"
       inkscape:export-xdpi="49344"
       d="M 62.570811,173.54094 A 240.00056,240.00056 0 0 0 14.645729,317.43948 240.00056,240.00056 0 0 0 210.13368,553.27756 V 524.14534 A 230.30308,233.76647 0 0 1 28.633249,295.68946 230.30308,233.76647 0 0 1 62.570811,173.54094 Z"
       style="fill:#9d9d9d;fill-opacity:1;stroke-width:2.74287"
       id="path2185" />
    <circle
       inkscape:export-ydpi="49344"
       inkscape:export-xdpi="49344"
       r="34.285797"
       cy="543.54486"
       cx="218.9265"
       id="path2207"
       style="fill:#646464;fill-opacity:1;stroke-width:2.74287" />
    <text
       transform="scale(1.0601293,0.94328121)"
       id="text3848"
       y="418.13013"
       x="542.33923"
       style="font-style:normal;font-variant:normal;font-weight:bold;font-stretch:normal;font-size:239.605px;line-height:1.25;font-family:'HarmonyOS Sans SC';-inkscape-font-specification:'HarmonyOS Sans SC Bold';fill:#646464;fill-opacity:1;stroke:none;stroke-width:5.99013"
       xml:space="preserve"><tspan
         style="font-style:normal;font-variant:normal;font-weight:bold;font-stretch:normal;font-family:'HarmonyOS Sans SC';-inkscape-font-specification:'HarmonyOS Sans SC Bold';fill:#646464;fill-opacity:1;stroke-width:5.99013"
         y="418.13013"
         x="542.33923"
         id="tspan3846"
         sodipodi:role="line">Planet</tspan></text>
    <text
       transform="scale(1.0184457,0.98188838)"
       id="text3852"
       y="526.25458"
       x="580.93414"
       style="font-style:normal;font-variant:normal;font-weight:normal;font-stretch:normal;font-size:73.021px;line-height:1.25;font-family:sans-serif;-inkscape-font-specification:sans-serif;fill:#646464;fill-opacity:1;stroke:none;stroke-width:1.82552"
       xml:space="preserve"><tspan
         style="font-style:normal;font-variant:normal;font-weight:normal;font-stretch:normal;font-family:sans-serif;-inkscape-font-specification:sans-serif;stroke-width:1.82552"
         y="526.25458"
         x="580.93414"
         id="tspan3850"
         sodipodi:role="line">Game engine</tspan></text>
  </g>
</svg>
