<?xml version="1.0" encoding="UTF-8" standalone="no"?>
<svg
   xmlns:dc="http://purl.org/dc/elements/1.1/"
   xmlns:cc="http://creativecommons.org/ns#"
   xmlns:rdf="http://www.w3.org/1999/02/22-rdf-syntax-ns#"
   xmlns:svg="http://www.w3.org/2000/svg"
   xmlns="http://www.w3.org/2000/svg"
   xmlns:sodipodi="http://sodipodi.sourceforge.net/DTD/sodipodi-0.dtd"
   xmlns:inkscape="http://www.inkscape.org/namespaces/inkscape"
   sodipodi:docname="tu128.svg"
   inkscape:version="1.0 (4035a4fb49, 2020-05-01)"
   width="128.0px"
   height="128.0px"
   viewBox="0 0 128.0 128.0"
   version="1.1"
   id="SVGRoot">
  <defs
     id="defs859" />
  <sodipodi:namedview
     inkscape:window-maximized="1"
     inkscape:window-y="-8"
     inkscape:window-x="-8"
     inkscape:window-height="1018"
     inkscape:window-width="1920"
     showgrid="true"
     inkscape:document-rotation="0"
     inkscape:current-layer="layer1"
     inkscape:document-units="px"
     inkscape:cy="86.457985"
     inkscape:cx="52.544036"
     inkscape:zoom="3.959798"
     inkscape:pageshadow="2"
     inkscape:pageopacity="0.0"
     borderopacity="1.0"
     bordercolor="#666666"
     pagecolor="#ffffff"
     id="base">
    <inkscape:grid
       type="xygrid"
       id="grid1429" />
  </sodipodi:namedview>
  <metadata
     id="metadata862">
    <rdf:RDF>
      <cc:Work
         rdf:about="">
        <dc:format>image/svg+xml</dc:format>
        <dc:type
           rdf:resource="http://purl.org/dc/dcmitype/StillImage" />
        <dc:title></dc:title>
      </cc:Work>
    </rdf:RDF>
  </metadata>
  <g
     id="layer1"
     inkscape:groupmode="layer"
     inkscape:label="图层 1">
    <path
       inkscape:export-ydpi="49344"
       inkscape:export-xdpi="49344"
       d="M 92.151453,17.71503 A 42.000733,42.000733 0 0 0 47.729862,17.757909 42.000733,42.000733 0 0 0 34.3504,75.629342 42.000733,42.000733 0 0 0 39.461819,82.24419 L 51.706005,66.533816 c 1.833723,-2.35298 5.204644,-2.771688 7.55762,-0.93796 2.352975,1.833733 2.770704,5.203855 0.936979,7.556821 L 47.807931,89.056208 a 42.000733,42.000733 0 0 0 44.413898,-0.04747 42.000733,42.000733 0 0 0 13.379461,-57.871425 42.000733,42.000733 0 0 0 -5.10826,-6.610711 L 87.937102,40.177844 c -1.866709,2.326896 -5.242401,2.698217 -7.569298,0.831512 -2.326893,-1.866709 -2.697429,-5.243386 -0.830715,-7.570282 z"
       style="fill:#646464;fill-opacity:1;stroke-width:0.646167"
       id="path2025" />
    <path
       inkscape:export-ydpi="49344"
       inkscape:export-xdpi="49344"
       d="m 69.622522,12.144342 a 42.000733,42.000733 0 0 0 -21.951945,6.374571 42.000733,42.000733 0 0 0 -3.627105,2.540488 64.616512,14.538715 37.191992 0 1 35.179397,22.41511 64.616512,14.538715 37.191992 0 1 29.665531,26.328706 42.000733,42.000733 0 0 0 -3.34568,-37.905405 42.000733,42.000733 0 0 0 -5.10873,-6.610573 L 87.87795,40.939076 c -1.866709,2.326901 -5.242821,2.69713 -7.569723,0.830416 -2.326895,-1.866702 -2.697133,-5.242821 -0.830428,-7.569717 L 92.091902,18.476003 A 42.000733,42.000733 0 0 0 69.622522,12.144342 Z M 108.8884,69.803217 a 42.000733,42.000733 0 0 1 -1.43369,3.180337 57.000996,11.255965 37.191992 0 1 8.0064,15.88658 57.000996,11.255965 37.191992 0 1 -17.504498,-3.456728 42.000733,42.000733 0 0 1 -3.192966,2.592238 64.616512,14.538715 37.191992 0 0 27.143974,6.112067 A 64.616512,14.538715 37.191992 0 0 108.8884,69.803217 Z M 94.763646,88.005644 A 64.616512,14.538715 37.191992 0 1 61.645159,66.639279 64.616512,14.538715 37.191992 0 1 30.752916,38.974077 a 42.000733,42.000733 0 0 0 3.538759,37.415738 42.000733,42.000733 0 0 0 5.111269,6.614362 L 51.647269,67.294282 c 1.83373,-2.352969 5.204132,-2.77142 7.557103,-0.937697 2.352979,1.833729 2.771425,5.204132 0.937698,7.557109 l -12.393252,15.90297 a 42.000733,42.000733 0 0 0 44.413755,-0.04671 42.000733,42.000733 0 0 0 2.601073,-1.764337 z M 30.752916,38.974077 a 42.000733,42.000733 0 0 1 1.553574,-3.526144 57.000996,11.255965 37.191992 0 1 -7.661859,-15.491554 57.000996,11.255965 37.191992 0 1 3.740697,-1.13079 57.000996,11.255965 37.191992 0 1 13.194638,4.317443 42.000733,42.000733 0 0 1 2.463506,-2.083631 64.616512,14.538715 37.191992 0 0 -19.56038,-6.714057 64.616512,14.538715 37.191992 0 0 -5.523949,1.65201 64.616512,14.538715 37.191992 0 0 11.793773,22.976723 z M 41.579966,23.143032 A 42.000733,42.000733 0 0 0 32.30649,35.447933 57.000996,11.255965 37.191992 0 0 63.247954,63.380689 57.000996,11.255965 37.191992 0 0 97.956612,85.413406 42.000733,42.000733 0 0 0 107.45471,72.983554 57.000996,11.255965 37.191992 0 0 76.857806,45.445827 57.000996,11.255965 37.191992 0 0 41.579966,23.143032 Z"
       style="fill:#646464;fill-opacity:1;stroke-width:0.646167"
       id="path2025-1" />
    <path
       inkscape:export-ydpi="49344"
       inkscape:export-xdpi="49344"
       id="path2177"
       d="m 115,95.514458 c -1.81111,-0.28526 -4.81439,-1.070464 -7.00469,-1.831404 -5.66367,-1.967627 -14.162183,-6.012102 -12.633027,-6.012102 0.09739,0 0.716359,-0.47178 1.375516,-1.048406 l 1.198484,-1.048397 2.836087,1.251876 c 8.87619,3.918029 14.65572,4.303654 15.23723,1.016676 0.43181,-2.440862 -1.85292,-6.899335 -6.42948,-12.546614 l -1.92203,-2.371714 0.63714,-1.42687 0.63715,-1.426867 1.73149,1.93465 c 8.33111,9.308506 12.56764,16.760479 11.70885,20.595549 -0.24547,1.096145 -1.12686,2.139948 -2.1918,2.59572 -0.97038,0.415291 -3.55546,0.573914 -5.18092,0.317903 z"
       style="fill:#9d9d9d;fill-opacity:1;stroke-width:0.230773" />
    <path
       inkscape:export-ydpi="49344"
       inkscape:export-xdpi="49344"
       id="path2179"
       d="M 29.075904,36.859567 C 22.455354,29.277336 18.33775,22.267538 18.33775,18.578951 c 0,-1.41065 0.838639,-2.895187 1.96157,-3.472335 1.140262,-0.586052 4.036147,-0.75711 6.288614,-0.37146 3.661372,0.626871 9.102663,2.532469 14.560588,5.099269 l 2.618107,1.231267 -1.100126,0.954386 -1.100117,0.954385 -2.23551,-0.983844 c -6.767729,-2.978474 -11.92312,-3.97538 -14.052705,-2.717402 -2.728574,1.611806 -0.623179,7.181868 5.503769,14.560891 l 1.38176,1.664125 -0.741125,1.600047 -0.741133,1.600045 z"
       style="fill:#9d9d9d;fill-opacity:1;stroke-width:0.230773" />
    <path
       inkscape:export-ydpi="49344"
       inkscape:export-xdpi="49344"
       id="path2181"
       d="M 90.800553,85.691102 C 75.723447,77.351514 58.84008,65.150239 44.068968,51.919125 40.000551,48.274876 31.030572,39.331095 31.029615,38.917865 c -3.61e-4,-0.157431 0.272992,-0.930955 0.607467,-1.718943 l 0.608126,-1.432708 4.483636,4.595228 c 15.623027,16.01184 37.941248,32.863685 56.992589,43.033468 l 3.959357,2.113543 -1.335751,1.081249 c -0.73466,0.594689 -1.477898,1.080956 -1.651626,1.080593 -0.173727,-4.66e-4 -1.925519,-0.89099 -3.89286,-1.979193 z"
       style="fill:#9d9d9d;fill-opacity:1;stroke-width:0.230773" />
    <path
       inkscape:export-ydpi="49344"
       inkscape:export-xdpi="49344"
       d="M 16.014601,19.783344 A 56.539447,56.539447 0 0 0 4.724383,53.683027 56.539447,56.539447 0 0 0 50.77753,109.24187 v -6.86298 A 54.254911,55.070815 0 0 1 8.019566,48.559148 54.254911,55.070815 0 0 1 16.014601,19.783344 Z"
       style="fill:#9d9d9d;fill-opacity:1;stroke-width:0.646167"
       id="path2185" />
    <circle
       inkscape:export-ydpi="49344"
       inkscape:export-xdpi="49344"
       r="8.0770636"
       cy="106.94905"
       cx="52.848938"
       id="path2207"
       style="fill:#646464;fill-opacity:1;stroke-width:0.646167" />
  </g>
</svg>
