<?xml version="1.0" encoding="UTF-8" standalone="no"?>
<svg
   xmlns:dc="http://purl.org/dc/elements/1.1/"
   xmlns:cc="http://creativecommons.org/ns#"
   xmlns:rdf="http://www.w3.org/1999/02/22-rdf-syntax-ns#"
   xmlns:svg="http://www.w3.org/2000/svg"
   xmlns="http://www.w3.org/2000/svg"
   xmlns:sodipodi="http://sodipodi.sourceforge.net/DTD/sodipodi-0.dtd"
   xmlns:inkscape="http://www.inkscape.org/namespaces/inkscape"
   sodipodi:docname="tu16.svg"
   inkscape:version="1.0 (4035a4fb49, 2020-05-01)"
   width="16.0px"
   height="16.0px"
   viewBox="0 0 16.0 16.0"
   version="1.1"
   id="SVGRoot">
  <defs
     id="defs2659" />
  <sodipodi:namedview
     inkscape:window-maximized="1"
     inkscape:window-y="-8"
     inkscape:window-x="-8"
     inkscape:window-height="1018"
     inkscape:window-width="1920"
     showgrid="true"
     inkscape:document-rotation="0"
     inkscape:current-layer="layer1"
     inkscape:document-units="px"
     inkscape:cy="10.01951"
     inkscape:cx="7.825637"
     inkscape:zoom="31.678384"
     inkscape:pageshadow="2"
     inkscape:pageopacity="0.0"
     borderopacity="1.0"
     bordercolor="#666666"
     pagecolor="#ffffff"
     id="base">
    <inkscape:grid
       type="xygrid"
       id="grid3229" />
  </sodipodi:namedview>
  <metadata
     id="metadata2662">
    <rdf:RDF>
      <cc:Work
         rdf:about="">
        <dc:format>image/svg+xml</dc:format>
        <dc:type
           rdf:resource="http://purl.org/dc/dcmitype/StillImage" />
        <dc:title></dc:title>
      </cc:Work>
    </rdf:RDF>
  </metadata>
  <g
     id="layer1"
     inkscape:groupmode="layer"
     inkscape:label="图层 1">
    <path
       inkscape:export-ydpi="49344"
       inkscape:export-xdpi="49344"
       d="M 11.166547,2.5694282 A 5.2085194,5.2085194 0 0 0 5.657816,2.5747477 5.2085194,5.2085194 0 0 0 3.9986264,9.7513966 5.2085194,5.2085194 0 0 0 4.6324942,10.571706 L 6.1508983,8.6234556 C 6.3782989,8.3316621 6.7963272,8.2797379 7.0881203,8.5071388 7.3799129,8.7345405 7.4317157,9.15247 7.2043153,9.4442616 L 5.6674972,11.416462 a 5.2085194,5.2085194 0 0 0 5.5077768,-0.0058 5.2085194,5.2085194 0 0 0 1.65919,-7.1766478 5.2085194,5.2085194 0 0 0 -0.633476,-0.8197956 L 10.643925,5.3550987 C 10.412434,5.6436104 9.9938125,5.6896578 9.7052541,5.4581672 9.4166955,5.2266762 9.3707452,4.8079339 9.6022368,4.5193753 Z"
       style="fill:#646464;fill-opacity:1;stroke-width:0.0801316"
       id="path2025" />
    <path
       inkscape:export-ydpi="49344"
       inkscape:export-xdpi="49344"
       d="M 8.3727293,1.8786058 A 5.2085194,5.2085194 0 0 0 5.6504637,2.6691176 5.2085194,5.2085194 0 0 0 5.2006662,2.9841643 8.0131073,1.8029491 37.191992 0 1 9.5632704,5.7638664 8.0131073,1.8029491 37.191992 0 1 13.242099,9.0288953 5.2085194,5.2085194 0 0 0 12.827203,4.3282376 5.2085194,5.2085194 0 0 0 12.193667,3.5084592 L 10.636588,5.4494467 C 10.405098,5.7380061 9.9864256,5.7839184 9.6978657,5.5524277 9.4093071,5.3209373 9.3633937,4.9022642 9.5948836,4.613705 L 11.15916,2.6637968 A 5.2085194,5.2085194 0 0 0 8.3727293,1.8786058 Z m 4.8693697,7.1502895 a 5.2085194,5.2085194 0 0 1 -0.17779,0.3943945 7.0687052,1.3958547 37.191992 0 1 0.992874,1.9700982 7.0687052,1.3958547 37.191992 0 1 -2.170737,-0.428671 5.2085194,5.2085194 0 0 1 -0.395961,0.321464 8.0131073,1.8029491 37.191992 0 0 3.366131,0.757958 8.0131073,1.8029491 37.191992 0 0 -1.614517,-3.0152437 z M 11.490485,11.286181 A 8.0131073,1.8029491 37.191992 0 1 7.3834549,8.6365345 8.0131073,1.8029491 37.191992 0 1 3.5525015,5.2057667 5.2085194,5.2085194 0 0 0 3.9913436,9.8456999 5.2085194,5.2085194 0 0 0 4.6251927,10.665949 L 6.1436145,8.7177614 C 6.3710155,8.4259691 6.7889799,8.3740769 7.0807723,8.6014773 7.3725659,8.8288782 7.4244573,9.2468428 7.1970564,9.5386358 L 5.6601668,11.510766 a 5.2085194,5.2085194 0 0 0 5.5077592,-0.0058 5.2085194,5.2085194 0 0 0 0.322559,-0.218795 z M 3.5525015,5.2057667 A 5.2085194,5.2085194 0 0 1 3.7451599,4.7684887 7.0687052,1.3958547 37.191992 0 1 2.7950124,2.8473782 7.0687052,1.3958547 37.191992 0 1 3.2588962,2.7071485 7.0687052,1.3958547 37.191992 0 1 4.895166,3.2425558 5.2085194,5.2085194 0 0 1 5.2006662,2.9841643 8.0131073,1.8029491 37.191992 0 0 2.7749788,2.1515521 8.0131073,1.8029491 37.191992 0 0 2.089953,2.3564187 8.0131073,1.8029491 37.191992 0 0 3.5525015,5.2057667 Z M 4.895166,3.2425558 A 5.2085194,5.2085194 0 0 0 3.7451599,4.7684887 7.0687052,1.3958547 37.191992 0 0 7.582218,8.232436 7.0687052,1.3958547 37.191992 0 0 11.886446,10.964717 5.2085194,5.2085194 0 0 0 13.064309,9.4232898 7.0687052,1.3958547 37.191992 0 0 9.2699783,6.0083299 7.0687052,1.3958547 37.191992 0 0 4.895166,3.2425558 Z"
       style="fill:#646464;fill-opacity:1;stroke-width:0.0801316"
       id="path2025-1" />
    <path
       inkscape:export-ydpi="49344"
       inkscape:export-xdpi="49344"
       id="path2177"
       d="m 14.000001,12.217351 c -0.224598,-0.03538 -0.597034,-0.13275 -0.868653,-0.227113 -0.702352,-0.244005 -1.756256,-0.745562 -1.566625,-0.745562 0.01208,0 0.08883,-0.0585 0.170579,-0.130013 l 0.148623,-0.130012 0.351704,0.155246 c 1.100738,0.485877 1.81746,0.533697 1.889573,0.126079 0.05354,-0.302693 -0.229781,-0.855589 -0.797322,-1.5559088 l -0.238353,-0.2941174 0.07901,-0.176946 0.07901,-0.1769463 0.214723,0.2399166 c 1.033141,1.1543499 1.558514,2.0784709 1.452014,2.5540579 -0.03045,0.135933 -0.139741,0.265376 -0.271802,0.321895 C 14.52215,12.229432 14.201573,12.2491 14,12.217353 Z"
       style="fill:#9d9d9d;fill-opacity:1;stroke-width:0.0286183" />
    <path
       inkscape:export-ydpi="49344"
       inkscape:export-xdpi="49344"
       id="path2179"
       d="M 3.3445352,4.9435462 C 2.523519,4.0032721 2.0128941,3.1339851 2.0128941,2.6765631 c 0,-0.1749351 0.1040014,-0.359033 0.2432549,-0.4306055 0.1414034,-0.072676 0.5005225,-0.093888 0.7798525,-0.046064 0.4540473,0.077739 1.128823,0.3140518 1.8056614,0.6323609 L 5.166334,2.9849446 5.0299078,3.103298 4.8934816,3.2216518 4.6162564,3.0996448 C 3.776988,2.7302839 3.1376676,2.6066573 2.8735771,2.7626596 2.5352064,2.9625399 2.7962931,3.6532845 3.556101,4.5683585 l 0.1713519,0.2063686 -0.091912,0.1984223 -0.091912,0.1984217 z"
       style="fill:#9d9d9d;fill-opacity:1;stroke-width:0.0286183" />
    <path
       inkscape:export-ydpi="49344"
       inkscape:export-xdpi="49344"
       id="path2181"
       d="M 10.999021,10.999155 C 9.1293061,9.964961 7.0355962,8.4518784 5.2038277,6.8110848 4.699302,6.3591608 3.5869341,5.2500406 3.5868149,5.198796 3.5867697,5.1792754 3.6206694,5.0833482 3.6621465,4.9856294 l 0.07542,-0.1776708 0.5560169,0.5698557 c 1.9374149,1.9856315 4.705102,4.0754325 7.0676616,5.3365897 l 0.491003,0.262101 -0.165648,0.134086 c -0.0911,0.07374 -0.183274,0.134048 -0.204819,0.134005 -0.02155,-5.7e-5 -0.238783,-0.110492 -0.482755,-0.245441 z"
       style="fill:#9d9d9d;fill-opacity:1;stroke-width:0.0286183" />
    <path
       inkscape:export-ydpi="49344"
       inkscape:export-xdpi="49344"
       d="M 1.7247999,2.82592 A 7.0114687,7.0114687 0 0 0 0.3246975,7.0298269 7.0114687,7.0114687 0 0 0 6.0357578,13.919691 V 13.06861 A 6.7281627,6.8293434 0 0 1 0.73333308,6.3944138 6.7281627,6.8293434 0 0 1 1.7247999,2.82592 Z"
       style="fill:#9d9d9d;fill-opacity:1;stroke-width:0.0801316"
       id="path2185" />
    <circle
       inkscape:export-ydpi="49344"
       inkscape:export-xdpi="49344"
       r="1.0016384"
       cy="13.635356"
       cx="6.292634"
       id="path2207"
       style="fill:#646464;fill-opacity:1;stroke-width:0.0801316" />
  </g>
</svg>
