<?xml version="1.0" encoding="UTF-8" standalone="no"?>
<svg
   xmlns:dc="http://purl.org/dc/elements/1.1/"
   xmlns:cc="http://creativecommons.org/ns#"
   xmlns:rdf="http://www.w3.org/1999/02/22-rdf-syntax-ns#"
   xmlns:svg="http://www.w3.org/2000/svg"
   xmlns="http://www.w3.org/2000/svg"
   xmlns:sodipodi="http://sodipodi.sourceforge.net/DTD/sodipodi-0.dtd"
   xmlns:inkscape="http://www.inkscape.org/namespaces/inkscape"
   sodipodi:docname="tu256.svg"
   inkscape:version="1.0 (4035a4fb49, 2020-05-01)"
   width="256.0px"
   height="256.0px"
   viewBox="0 0 256.0 256.0"
   version="1.1"
   id="SVGRoot">
  <defs
     id="defs1402" />
  <sodipodi:namedview
     inkscape:window-maximized="1"
     inkscape:window-y="-8"
     inkscape:window-x="-8"
     inkscape:window-height="1018"
     inkscape:window-width="1920"
     showgrid="true"
     inkscape:document-rotation="0"
     inkscape:current-layer="layer1"
     inkscape:document-units="px"
     inkscape:cy="141.7014"
     inkscape:cx="17.52309"
     inkscape:zoom="1.979899"
     inkscape:pageshadow="2"
     inkscape:pageopacity="0.0"
     borderopacity="1.0"
     bordercolor="#666666"
     pagecolor="#ffffff"
     id="base">
    <inkscape:grid
       type="xygrid"
       id="grid1972" />
  </sodipodi:namedview>
  <metadata
     id="metadata1405">
    <rdf:RDF>
      <cc:Work
         rdf:about="">
        <dc:format>image/svg+xml</dc:format>
        <dc:type
           rdf:resource="http://purl.org/dc/dcmitype/StillImage" />
        <dc:title></dc:title>
      </cc:Work>
    </rdf:RDF>
  </metadata>
  <g
     id="layer1"
     inkscape:groupmode="layer"
     inkscape:label="图层 1">
    <path
       inkscape:export-ydpi="49344"
       inkscape:export-xdpi="49344"
       d="m 187.77373,40.428568 a 86.237727,86.237727 0 0 0 -91.20834,0.08803 86.237727,86.237727 0 0 0 -27.471294,118.824152 86.237727,86.237727 0 0 0 10.494989,13.58189 l 25.140295,-32.25723 c 3.76508,-4.83124 10.6864,-5.69095 15.51763,-1.92586 4.83123,3.7651 5.68893,10.68478 1.92385,15.51599 l -25.44518,32.65382 a 86.237727,86.237727 0 0 0 91.19255,-0.0974 86.237727,86.237727 0 0 0 27.4713,-118.824133 86.237727,86.237727 0 0 0 -10.48851,-13.5734 l -25.78037,32.135799 c -3.83281,4.777684 -10.76394,5.540094 -15.54162,1.707292 -4.77768,-3.832807 -5.53848,-10.765946 -1.70566,-15.543629 z"
       style="fill:#646464;fill-opacity:1;stroke-width:1.32674"
       id="path2025" />
    <path
       inkscape:export-ydpi="49344"
       inkscape:export-xdpi="49344"
       d="M 141.51635,28.990588 A 86.237727,86.237727 0 0 0 96.44366,42.079133 86.237727,86.237727 0 0 0 88.996334,47.295374 132.67343,29.85152 37.191992 0 1 161.2282,93.31905 132.67343,29.85152 37.191992 0 1 222.13877,147.3783 86.237727,86.237727 0 0 0 215.26929,69.549269 86.237727,86.237727 0 0 0 204.7798,55.976155 l -25.78062,32.13703 c -3.8328,4.777695 -10.76478,5.537865 -15.54248,1.70505 -4.77768,-3.832796 -5.53787,-10.764792 -1.70507,-15.542475 l 25.89982,-32.284732 a 86.237727,86.237727 0 0 0 -46.1351,-13.00044 z M 222.13877,147.3783 a 86.237727,86.237727 0 0 1 -2.9437,6.53001 117.03692,23.111237 37.191992 0 1 16.43908,32.61901 117.03692,23.111237 37.191992 0 1 -35.94102,-7.09751 86.237727,86.237727 0 0 1 -6.55594,5.32249 132.67343,29.85152 37.191992 0 0 55.73321,12.54955 132.67343,29.85152 37.191992 0 0 -26.73163,-49.92355 z m -29.00158,37.374 a 132.67343,29.85152 37.191992 0 1 -68.00031,-43.87034 132.67343,29.85152 37.191992 0 1 -63.429298,-56.803397 86.237727,86.237727 0 0 0 7.26594,76.823617 86.237727,86.237727 0 0 0 10.49468,13.58089 l 25.140578,-32.25623 c 3.76509,-4.83122 10.68535,-5.6904 15.51657,-1.92532 4.83124,3.76509 5.69041,10.68535 1.92532,15.51658 l -25.44636,32.65267 a 86.237727,86.237727 0 0 0 91.19226,-0.0959 86.237727,86.237727 0 0 0 5.34062,-3.62261 z M 61.707582,84.078563 A 86.237727,86.237727 0 0 1 64.897449,76.838532 117.03692,23.111237 37.191992 0 1 49.165791,45.030598 117.03692,23.111237 37.191992 0 1 56.846348,42.708813 117.03692,23.111237 37.191992 0 1 83.938156,51.573575 86.237727,86.237727 0 0 1 88.996334,47.295374 132.67343,29.85152 37.191992 0 0 48.834108,33.509777 132.67343,29.85152 37.191992 0 0 37.492095,36.901759 132.67343,29.85152 37.191992 0 0 61.707582,84.078563 Z M 83.938156,51.573575 a 86.237727,86.237727 0 0 0 -19.040707,25.264957 117.03692,23.111237 37.191992 0 0 63.530361,57.352748 117.03692,23.111237 37.191992 0 0 71.26532,45.23853 86.237727,86.237727 0 0 0 19.50194,-25.5215 A 117.03692,23.111237 37.191992 0 0 156.37215,97.36664 117.03692,23.111237 37.191992 0 0 83.938156,51.573575 Z"
       style="fill:#646464;fill-opacity:1;stroke-width:1.32674"
       id="path2025-1" />
    <path
       inkscape:export-ydpi="49344"
       inkscape:export-xdpi="49344"
       id="path2177"
       d="m 234.68738,200.16973 c -3.71868,-0.5857 -9.88512,-2.19794 -14.38234,-3.76032 -11.62888,-4.04001 -29.07843,-12.34431 -25.93869,-12.34431 0.19994,0 1.47086,-0.96868 2.82428,-2.15263 l 2.46078,-2.15262 5.82317,2.57041 c 18.22498,8.04468 30.09178,8.83646 31.28575,2.08748 0.88661,-5.01168 -3.8045,-14.16601 -13.2013,-25.76124 l -3.94641,-4.86972 1.30822,-2.9297 1.30823,-2.92971 3.5552,3.97231 c 17.10575,19.11263 25.80439,34.41335 24.04107,42.28768 -0.50399,2.25063 -2.3137,4.39383 -4.50025,5.32962 -1.99244,0.85269 -7.30026,1.1784 -10.63771,0.65275 z"
       style="fill:#9d9d9d;fill-opacity:1;stroke-width:0.473833" />
    <path
       inkscape:export-ydpi="49344"
       inkscape:export-xdpi="49344"
       id="path2179"
       d="M 58.264269,79.736963 C 44.670669,64.168796 36.216227,49.77597 36.216227,42.202405 c 0,-2.896407 1.721929,-5.944523 4.027581,-7.129552 2.341235,-1.203306 8.287193,-1.554524 12.912057,-0.762693 7.517687,1.287117 18.689983,5.199774 29.896431,10.470037 l 5.37561,2.528095 -2.258824,1.959583 -2.258813,1.959586 -4.590042,-2.020073 C 65.424428,43.09186 54.839158,41.044966 50.466601,43.627903 44.864173,46.937332 49.187059,58.374028 61.767179,73.524957 l 2.837089,3.416857 -1.521711,3.285284 -1.521725,3.285281 z"
       style="fill:#9d9d9d;fill-opacity:1;stroke-width:0.473833" />
    <path
       inkscape:export-ydpi="49344"
       inkscape:export-xdpi="49344"
       id="path2181"
       d="M 185,180 C 154.04303,162.87679 119.37737,137.8246 89.048679,110.6579 80.695229,103.17537 62.27768,84.81161 62.275716,83.96315 c -7.42e-4,-0.323245 0.560519,-1.911479 1.247276,-3.52941 l 1.24863,-2.941704 9.205997,9.435123 C 106.0555,119.80337 151.88024,154.40431 190.99727,175.28535 l 8.12955,4.33962 -2.74263,2.22007 c -1.50843,1.22104 -3.03448,2.21945 -3.39119,2.21872 C 192.63628,184.06281 189.03943,182.23434 185,180 Z"
       style="fill:#9d9d9d;fill-opacity:1;stroke-width:0.473833" />
    <path
       inkscape:export-ydpi="49344"
       inkscape:export-xdpi="49344"
       d="M 31.446233,44.675317 A 116.08925,116.08925 0 0 0 8.26467,114.27962 116.08925,116.08925 0 0 0 102.82299,228.35546 V 214.26408 A 111.39854,113.07379 0 0 1 15.030484,103.75905 111.39854,113.07379 0 0 1 31.446233,44.675317 Z"
       style="fill:#9d9d9d;fill-opacity:1;stroke-width:1.32674"
       id="path2185" />
    <circle
       inkscape:export-ydpi="49344"
       inkscape:export-xdpi="49344"
       r="16.584179"
       cy="223.64771"
       cx="107.07611"
       id="path2207"
       style="fill:#646464;fill-opacity:1;stroke-width:1.32674" />
  </g>
</svg>
