<?xml version="1.0" encoding="UTF-8" standalone="no"?>
<svg
   xmlns:dc="http://purl.org/dc/elements/1.1/"
   xmlns:cc="http://creativecommons.org/ns#"
   xmlns:rdf="http://www.w3.org/1999/02/22-rdf-syntax-ns#"
   xmlns:svg="http://www.w3.org/2000/svg"
   xmlns="http://www.w3.org/2000/svg"
   xmlns:sodipodi="http://sodipodi.sourceforge.net/DTD/sodipodi-0.dtd"
   xmlns:inkscape="http://www.inkscape.org/namespaces/inkscape"
   sodipodi:docname="tu32.svg"
   inkscape:version="1.0 (4035a4fb49, 2020-05-01)"
   width="32.0px"
   height="32.0px"
   viewBox="0 0 32.0 32.0"
   version="1.1"
   id="SVGRoot">
  <defs
     id="defs2064" />
  <sodipodi:namedview
     inkscape:window-maximized="1"
     inkscape:window-y="-8"
     inkscape:window-x="-8"
     inkscape:window-height="1018"
     inkscape:window-width="1920"
     showgrid="true"
     inkscape:document-rotation="0"
     inkscape:current-layer="layer1"
     inkscape:document-units="px"
     inkscape:cy="22.03192"
     inkscape:cx="19.020631"
     inkscape:zoom="15.839192"
     inkscape:pageshadow="2"
     inkscape:pageopacity="0.0"
     borderopacity="1.0"
     bordercolor="#666666"
     pagecolor="#ffffff"
     id="base">
    <inkscape:grid
       type="xygrid"
       id="grid2634" />
  </sodipodi:namedview>
  <metadata
     id="metadata2067">
    <rdf:RDF>
      <cc:Work
         rdf:about="">
        <dc:format>image/svg+xml</dc:format>
        <dc:type
           rdf:resource="http://purl.org/dc/dcmitype/StillImage" />
        <dc:title></dc:title>
      </cc:Work>
    </rdf:RDF>
  </metadata>
  <g
     id="layer1"
     inkscape:groupmode="layer"
     inkscape:label="图层 1">
    <path
       inkscape:export-ydpi="49344"
       inkscape:export-xdpi="49344"
       d="M 23.343114,4.7347817 A 10.66775,10.66775 0 0 0 12.060492,4.7456702 10.66775,10.66775 0 0 0 8.6622471,19.444415 10.66775,10.66775 0 0 0 9.9604946,21.124518 l 3.1098974,-3.990274 c 0.465746,-0.597632 1.321925,-0.70398 1.919555,-0.238231 0.597632,0.465748 0.70373,1.321724 0.237983,1.919352 l -3.14761,4.039334 A 10.66775,10.66775 0 0 0 23.360989,22.842649 10.66775,10.66775 0 0 0 26.759235,8.1439061 10.66775,10.66775 0 0 0 25.461788,6.4648541 L 22.272715,10.440106 C 21.79859,11.031114 20.941197,11.125425 20.35019,10.651301 19.759183,10.177176 19.665071,9.3195347 20.139196,8.7285278 Z"
       style="fill:#646464;fill-opacity:1;stroke-width:0.16412"
       id="path2025" />
    <path
       inkscape:export-ydpi="49344"
       inkscape:export-xdpi="49344"
       d="m 17.621,3.3198846 a 10.66775,10.66775 0 0 0 -5.575566,1.6190743 10.66775,10.66775 0 0 0 -0.921247,0.6452576 16.411923,3.6926826 37.191992 0 1 8.935201,5.6932055 16.411923,3.6926826 37.191992 0 1 7.534739,6.687218 10.66775,10.66775 0 0 0 -0.849766,-9.6275793 10.66775,10.66775 0 0 0 -1.297568,-1.6790169 l -3.189105,3.9754042 c -0.474123,0.591008 -1.331621,0.685043 -1.92263,0.210918 -0.591007,-0.474124 -0.685044,-1.331623 -0.21092,-1.9226312 l 3.20385,-3.9936746 A 10.66775,10.66775 0 0 0 17.621,3.3198846 Z M 27.594127,17.96464 a 10.66775,10.66775 0 0 1 -0.364141,0.807774 14.477661,2.8588983 37.191992 0 1 2.033543,4.035026 14.477661,2.8588983 37.191992 0 1 -4.445964,-0.877974 10.66775,10.66775 0 0 1 -0.810982,0.6584 16.411923,3.6926826 37.191992 0 0 6.894291,1.5524 16.411923,3.6926826 37.191992 0 0 -3.306747,-6.175626 z m -3.587544,4.623226 a 16.411923,3.6926826 37.191992 0 1 -8.411751,-5.426834 16.411923,3.6926826 37.191992 0 1 -7.8463091,-7.026674 10.66775,10.66775 0 0 0 0.8988086,9.503209 10.66775,10.66775 0 0 0 1.2982093,1.679979 l 3.1099312,-3.99015 c 0.465748,-0.597629 1.321796,-0.703911 1.919425,-0.238165 0.597633,0.465748 0.703914,1.321796 0.238166,1.919427 l -3.147757,4.039189 a 10.66775,10.66775 0 0 0 11.280633,-0.01186 10.66775,10.66775 0 0 0 0.660644,-0.448123 z M 7.7485229,10.134358 A 10.66775,10.66775 0 0 1 8.143115,9.2387539 14.477661,2.8588983 37.191992 0 1 6.1970826,5.3040599 14.477661,2.8588983 37.191992 0 1 7.1471805,5.0168516 14.477661,2.8588983 37.191992 0 1 10.498481,6.1134376 10.66775,10.66775 0 0 1 11.124187,5.5842165 16.411923,3.6926826 37.191992 0 0 6.1560527,3.8789158 16.411923,3.6926826 37.191992 0 0 4.7530269,4.2985093 16.411923,3.6926826 37.191992 0 0 7.7485229,10.134358 Z M 10.498481,6.1134376 a 10.66775,10.66775 0 0 0 -2.355366,3.1253163 14.477661,2.8588983 37.191992 0 0 7.858811,7.0946311 14.477661,2.8588983 37.191992 0 0 8.815639,5.596081 10.66775,10.66775 0 0 0 2.412421,-3.157052 14.477661,2.8588983 37.191992 0 0 -7.771299,-6.994298 14.477661,2.8588983 37.191992 0 0 -8.960206,-5.6646784 z"
       style="fill:#646464;fill-opacity:1;stroke-width:0.16412"
       id="path2025-1" />
    <path
       inkscape:export-ydpi="49344"
       inkscape:export-xdpi="49344"
       id="path2177"
       d="m 29.146412,24.495028 c -0.460008,-0.07245 -1.222807,-0.271889 -1.77912,-0.465158 -1.438512,-0.499756 -3.597051,-1.527011 -3.208659,-1.527011 0.02473,0 0.181948,-0.119828 0.349368,-0.266285 l 0.304403,-0.266282 0.720335,0.317964 c 2.254461,0.99514 3.722403,1.093086 3.8701,0.258225 0.109675,-0.619952 -0.470623,-1.752358 -1.633024,-3.186708 l -0.488177,-0.602393 0.161829,-0.362408 0.16183,-0.362411 0.439785,0.491382 c 2.116009,2.364264 3.192045,4.256988 2.973919,5.231056 -0.06234,0.278407 -0.286208,0.543525 -0.556688,0.659283 -0.246468,0.105483 -0.903053,0.14577 -1.315901,0.08075 z"
       style="fill:#9d9d9d;fill-opacity:1;stroke-width:0.0586139" />
    <path
       inkscape:export-ydpi="49344"
       inkscape:export-xdpi="49344"
       id="path2179"
       d="M 7.3225798,9.597294 C 5.6410288,7.6714867 4.5952,5.8910703 4.5952,4.9542078 4.5952,4.5959175 4.8082053,4.2188604 5.0934187,4.0722702 5.3830334,3.9234193 6.1185582,3.8799738 6.6906614,3.9779242 7.6206116,4.137143 9.0026435,4.6211452 10.3889,5.2730848 l 0.664971,0.3127299 -0.27942,0.2424041 -0.27942,0.2424041 L 9.9272358,5.820736 C 8.2083033,5.0642351 6.8988872,4.8110307 6.3579949,5.1305448 5.6649655,5.5399261 6.1997138,6.9546645 7.7558954,8.8288595 L 8.1068482,9.2515313 7.9186095,9.657925 7.7303694,10.06432 Z"
       style="fill:#9d9d9d;fill-opacity:1;stroke-width:0.0586139" />
    <path
       inkscape:export-ydpi="49344"
       inkscape:export-xdpi="49344"
       id="path2181"
       d="M 23,22 C 19.170572,19.881829 14.882371,16.782831 11.130662,13.422266 10.097327,12.496665 7.8190448,10.225037 7.8188022,10.120081 7.8187107,10.080101 7.8881412,9.883628 7.9730919,9.683487 L 8.1275499,9.3195939 9.266347,10.486734 c 3.968087,4.066842 9.636683,8.347035 14.475525,10.930055 l 1.005639,0.536818 -0.339268,0.274627 c -0.186596,0.151045 -0.37537,0.27455 -0.419496,0.274458 C 23.944617,22.502576 23.499684,22.276391 23,22 Z"
       style="fill:#9d9d9d;fill-opacity:1;stroke-width:0.0586139" />
    <path
       inkscape:export-ydpi="49344"
       inkscape:export-xdpi="49344"
       d="M 4.005144,5.2601114 A 14.360433,14.360433 0 0 0 1.137546,13.87028 14.360433,14.360433 0 0 0 12.834567,27.98165 V 26.238522 A 13.780184,13.987415 0 0 1 1.9744888,12.568866 13.780184,13.987415 0 0 1 4.005144,5.2601114 Z"
       style="fill:#9d9d9d;fill-opacity:1;stroke-width:0.16412"
       id="path2185" />
    <circle
       inkscape:export-ydpi="49344"
       inkscape:export-xdpi="49344"
       r="2.0514905"
       cy="27.399292"
       cx="13.360683"
       id="path2207"
       style="fill:#646464;fill-opacity:1;stroke-width:0.16412" />
  </g>
</svg>
