<?xml version="1.0" encoding="UTF-8" standalone="no"?>
<svg
   xmlns:dc="http://purl.org/dc/elements/1.1/"
   xmlns:cc="http://creativecommons.org/ns#"
   xmlns:rdf="http://www.w3.org/1999/02/22-rdf-syntax-ns#"
   xmlns:svg="http://www.w3.org/2000/svg"
   xmlns="http://www.w3.org/2000/svg"
   xmlns:sodipodi="http://sodipodi.sourceforge.net/DTD/sodipodi-0.dtd"
   xmlns:inkscape="http://www.inkscape.org/namespaces/inkscape"
   sodipodi:docname="tu64.svg"
   inkscape:version="1.0 (4035a4fb49, 2020-05-01)"
   width="64.0px"
   height="64.0px"
   viewBox="0 0 64.0 64.0"
   version="1.1"
   id="SVGRoot">
  <defs
     id="defs1469" />
  <sodipodi:namedview
     inkscape:window-maximized="1"
     inkscape:window-y="-8"
     inkscape:window-x="-8"
     inkscape:window-height="1018"
     inkscape:window-width="1920"
     showgrid="true"
     inkscape:document-rotation="0"
     inkscape:current-layer="layer1"
     inkscape:document-units="px"
     inkscape:cy="34.334456"
     inkscape:cx="39.150045"
     inkscape:zoom="11.2"
     inkscape:pageshadow="2"
     inkscape:pageopacity="0.0"
     borderopacity="1.0"
     bordercolor="#666666"
     pagecolor="#ffffff"
     id="base">
    <inkscape:grid
       type="xygrid"
       id="grid2039" />
  </sodipodi:namedview>
  <metadata
     id="metadata1472">
    <rdf:RDF>
      <cc:Work
         rdf:about="">
        <dc:format>image/svg+xml</dc:format>
        <dc:type
           rdf:resource="http://purl.org/dc/dcmitype/StillImage" />
        <dc:title></dc:title>
      </cc:Work>
    </rdf:RDF>
  </metadata>
  <g
     id="layer1"
     inkscape:groupmode="layer"
     inkscape:label="图层 1">
    <path
       inkscape:export-ydpi="49344"
       inkscape:export-xdpi="49344"
       d="m 46.695194,9.0185149 a 21.614192,21.614192 0 0 0 -22.860002,0.022058 21.614192,21.614192 0 0 0 -6.885266,29.7814921 21.614192,21.614192 0 0 0 2.63041,3.404097 l 6.301037,-8.084792 c 0.943662,-1.210877 2.678386,-1.426351 3.889262,-0.482687 1.210876,0.943666 1.425845,2.677979 0.482184,3.88885 l -6.377452,8.18419 a 21.614192,21.614192 0 0 0 22.856043,-0.02441 21.614192,21.614192 0 0 0 6.88527,-29.781486 21.614192,21.614192 0 0 0 -2.628788,-3.401968 l -6.461464,8.054356 c -0.960635,1.197454 -2.697819,1.388541 -3.895273,0.427906 -1.197454,-0.960635 -1.388137,-2.698323 -0.427497,-3.895777 z"
       style="fill:#646464;fill-opacity:1;stroke-width:0.332528"
       id="path2025" />
    <path
       inkscape:export-ydpi="49344"
       inkscape:export-xdpi="49344"
       d="M 35.101476,6.1517569 A 21.614192,21.614192 0 0 0 23.804682,9.4322041 21.614192,21.614192 0 0 0 21.938122,10.739577 33.252605,7.4818356 37.191992 0 1 40.041956,22.27472 33.252605,7.4818356 37.191992 0 1 55.308275,35.82386 21.614192,21.614192 0 0 0 53.586543,16.317181 21.614192,21.614192 0 0 0 50.957511,12.915284 l -6.461526,8.054665 c -0.960634,1.197458 -2.698031,1.387982 -3.895491,0.427344 C 39.403041,20.436661 39.21251,18.69926 40.173145,17.501806 L 46.664546,9.4101215 A 21.614192,21.614192 0 0 0 35.101476,6.1517569 Z M 55.308275,35.82386 a 21.614192,21.614192 0 0 1 -0.737794,1.636649 29.333547,5.7924847 37.191992 0 1 4.120209,8.175466 29.333547,5.7924847 37.191992 0 1 -9.008077,-1.778886 21.614192,21.614192 0 0 1 -1.643148,1.334003 33.252605,7.4818356 37.191992 0 0 13.968692,3.145357 33.252605,7.4818356 37.191992 0 0 -6.699882,-12.512589 z m -7.26881,9.367232 A 33.252605,7.4818356 37.191992 0 1 30.996208,34.195651 33.252605,7.4818356 37.191992 0 1 15.098606,19.958731 a 21.614192,21.614192 0 0 0 1.821098,19.254687 21.614192,21.614192 0 0 0 2.630334,3.403846 l 6.301109,-8.08454 c 0.943663,-1.210873 2.678123,-1.426214 3.888995,-0.482552 1.210879,0.943663 1.426216,2.678122 0.482553,3.888998 l -6.377749,8.1839 a 21.614192,21.614192 0 0 0 22.855972,-0.02403 21.614192,21.614192 0 0 0 1.338547,-0.907953 z M 15.098606,19.958731 a 21.614192,21.614192 0 0 1 0.799491,-1.814605 29.333547,5.7924847 37.191992 0 1 -3.942903,-7.972182 29.333547,5.7924847 37.191992 0 1 1.925017,-0.5819208 29.333547,5.7924847 37.191992 0 1 6.790156,2.2218208 21.614192,21.614192 0 0 1 1.267755,-1.072267 A 33.252605,7.4818356 37.191992 0 0 11.872063,7.2844231 33.252605,7.4818356 37.191992 0 0 9.029358,8.1345736 33.252605,7.4818356 37.191992 0 0 15.098606,19.958731 Z m 5.571761,-8.146887 a 21.614192,21.614192 0 0 0 -4.77227,6.332282 29.333547,5.7924847 37.191992 0 0 15.922932,14.374606 29.333547,5.7924847 37.191992 0 0 17.861584,11.338357 21.614192,21.614192 0 0 0 4.887868,-6.39658 A 29.333547,5.7924847 37.191992 0 0 38.824859,23.289188 29.333547,5.7924847 37.191992 0 0 20.670367,11.811844 Z"
       style="fill:#646464;fill-opacity:1;stroke-width:0.332528"
       id="path2025-1" />
    <path
       inkscape:export-ydpi="49344"
       inkscape:export-xdpi="49344"
       id="path2177"
       d="m 58.453396,49.05524 c -0.932031,-0.146798 -2.477556,-0.55088 -3.604718,-0.942469 -2.914604,-1.012567 -7.288072,-3.093916 -6.501143,-3.093916 0.0501,0 0.36865,-0.242784 0.707863,-0.539523 l 0.616758,-0.539521 1.45949,0.644233 c 4.567818,2.016278 7.542052,2.214727 7.841304,0.523197 0.222216,-1.256104 -0.953541,-3.550499 -3.308709,-6.45667 l -0.989107,-1.220522 0.327885,-0.734284 0.327888,-0.734289 0.891059,0.995599 c 4.287298,4.790295 6.467483,8.62519 6.025533,10.598773 -0.126318,0.564087 -0.579894,1.101248 -1.127921,1.33579 -0.499375,0.213713 -1.829701,0.295347 -2.666182,0.163602 z"
       style="fill:#9d9d9d;fill-opacity:1;stroke-width:0.11876" />
    <path
       inkscape:export-ydpi="49344"
       inkscape:export-xdpi="49344"
       id="path2179"
       d="M 14.235592,18.870574 C 10.828559,14.968646 8.70958,11.361301 8.70958,9.4631003 c 0,-0.7259407 0.431575,-1.4899053 1.009453,-1.7869149 0.586795,-0.3015909 2.077061,-0.3896186 3.236213,-0.1911572 1.884196,0.3225962 4.684364,1.3032449 7.493092,2.6241568 l 1.347316,0.63363 -0.566141,0.49114 -0.566137,0.49114 -1.150426,-0.5063 C 16.030177,9.6860286 13.377138,9.1730056 12.281222,9.8203795 10.877058,10.649839 11.960524,13.516275 15.113543,17.313627 l 0.711074,0.856384 -0.381395,0.823407 -0.381396,0.823407 z"
       style="fill:#9d9d9d;fill-opacity:1;stroke-width:0.11876" />
    <path
       inkscape:export-ydpi="49344"
       inkscape:export-xdpi="49344"
       id="path2181"
       d="M 46,44 C 38.241099,39.708324 29.552673,33.429368 21.951241,26.620442 19.857575,24.745059 15.241492,20.142458 15.241,19.929805 c -1.86e-4,-0.08103 0.140485,-0.479084 0.312611,-0.884594 l 0.31295,-0.737293 2.307345,2.36477 c 8.039841,8.239929 19.525122,16.912136 29.329219,22.145656 l 2.03755,1.08766 -0.687399,0.556427 C 48.475212,44.768466 48.092729,45.018703 48.003325,45.01852 47.913915,45.018281 47.012422,44.560004 46,44 Z"
       style="fill:#9d9d9d;fill-opacity:1;stroke-width:0.11876" />
    <path
       inkscape:export-ydpi="49344"
       inkscape:export-xdpi="49344"
       d="M 7.514053,10.082899 A 29.096028,29.096028 0 0 0 1.703942,27.528173 29.096028,29.096028 0 0 0 25.403566,56.11957 V 52.587777 A 27.920372,28.340249 0 0 1 3.3996914,24.891349 27.920372,28.340249 0 0 1 7.514053,10.082899 Z"
       style="fill:#9d9d9d;fill-opacity:1;stroke-width:0.332528"
       id="path2185" />
    <circle
       inkscape:export-ydpi="49344"
       inkscape:export-xdpi="49344"
       r="4.1565757"
       cy="54.939644"
       cx="26.469547"
       id="path2207"
       style="fill:#646464;fill-opacity:1;stroke-width:0.332528" />
  </g>
</svg>
